<svg xmlns="http://www.w3.org/2000/svg" version="1.1" xmlns:xlink="http://www.w3.org/1999/xlink" xmlns:svgjs="http://svgjs.dev/svgjs" width="1500" height="500" viewBox="0 0 1500 500"><g transform="matrix(1,0,0,1,-0.9090909090909918,4.75251701805243)"><svg viewBox="0 0 396 132" data-background-color="#444444" preserveAspectRatio="xMidYMid meet" height="500" width="1500" xmlns="http://www.w3.org/2000/svg" xmlns:xlink="http://www.w3.org/1999/xlink"><g id="tight-bounds" transform="matrix(1,0,0,1,0.2400000000000091,0.1666433777345162)"><svg viewBox="0 0 395.52 131.66671324453097" height="131.66671324453097" width="395.52"><g><svg viewBox="0 0 666.0319542036888 221.7188468998576" height="131.66671324453097" width="395.52"><g transform="matrix(1,0,0,1,270.5119542036888,55.621715670042654)"><svg viewBox="0 0 395.52 110.47541555977229" height="110.47541555977229" width="395.52"><g id="textblocktransform"><svg viewBox="0 0 395.52 110.47541555977229" height="110.47541555977229" width="395.52" id="textblock"><g><svg viewBox="0 0 395.52 110.47541555977229" height="110.47541555977229" width="395.52"><g transform="matrix(1,0,0,1,0,0)"><svg width="395.52" viewBox="3 -36 131.74 36.8" height="110.47541555977229" data-palette-color="#ffffff"><path d="M7.55 0L3 0 3-25.25 7.55-25.25 7.55 0ZM20.6 0L16.05 0 16.05-17.2 20.6-17.2 20.6 0ZM7.55-17.1L5.5-17.1Q5.5-19.65 6.48-21.68 7.45-23.7 9.15-24.85 10.85-26 12.95-26L12.95-26 11.8-21.95Q10-21.95 8.78-20.6 7.55-19.25 7.55-17.1L7.55-17.1ZM20.6-17.2L16.05-17.2Q16.05-19.3 14.85-20.63 13.65-21.95 11.8-21.95L11.8-21.95 12.95-26Q15.15-26 16.88-24.85 18.6-23.7 19.6-21.73 20.6-19.75 20.6-17.2L20.6-17.2ZM33.6 0L29.05 0 29.05-17.2 33.6-17.2 33.6 0ZM20.6-17.1L18.55-17.1Q18.55-19.65 19.53-21.68 20.5-23.7 22.18-24.85 23.85-26 25.95-26L25.95-26 24.8-21.95Q23-21.95 21.8-20.6 20.6-19.25 20.6-17.1L20.6-17.1ZM33.6-17.2L29.05-17.2Q29.05-19.3 27.88-20.63 26.7-21.95 24.8-21.95L24.8-21.95 25.95-26Q28.15-26 29.88-24.85 31.6-23.7 32.6-21.73 33.6-19.75 33.6-17.2L33.6-17.2ZM56-11.25L38.95-11.25 38.95-14.5 56-14.5 56-11.25ZM46.95 0.8L46.7 0.8 46.7-3.15 46.95-3.15 46.95 0.8ZM42.05-8.95L37.5-8.95 37.5-16.3 42.05-16.3 42.05-8.95ZM56-14.5L51.45-14.5 51.45-17.1 56-17.1 56-14.5ZM56-17.1L56-17.1 51.45-17.1Q51.45-19.3 50.12-20.7 48.8-22.1 46.7-22.1L46.7-22.1 46.7-26Q49.4-26 51.47-24.85 53.55-23.7 54.77-21.68 56-19.65 56-17.1ZM51.65-7.5L51.65-7.5 55.9-6.65Q55.6-4.5 54.35-2.8 53.1-1.1 51.2-0.15 49.3 0.8 46.95 0.8L46.95 0.8 46.95-3.15Q48.75-3.15 50.07-4.23 51.4-5.3 51.65-7.5ZM42.05-16.25L37.5-16.25Q37.5-19.1 38.72-21.28 39.95-23.45 42.02-24.73 44.1-26 46.75-26L46.75-26 46.75-22.1Q44.55-22.1 43.3-20.58 42.05-19.05 42.05-16.25L42.05-16.25ZM37.5-8.95L37.5-8.95 42.05-8.95Q42.05-6.2 43.3-4.67 44.55-3.15 46.75-3.15L46.75-3.15 46.75 0.8Q44.1 0.8 42.02-0.48 39.95-1.75 38.72-3.95 37.5-6.15 37.5-8.95ZM78.5-35.25L78.5-25.2 73.95-25.2 73.95-35.25 78.5-35.25ZM78.5 0L73.95 0 73.95-25.25 78.5-25.25 78.5 0ZM64.45-8.05L59.9-8.05 59.9-17.2 64.45-17.2 64.45-8.05ZM64.45-17.2L64.45-17.2 59.9-17.2Q59.9-19.7 60.95-21.7 62-23.7 63.82-24.85 65.65-26 68-26L68-26 69.15-21.95Q67.09-21.95 65.77-20.63 64.45-19.3 64.45-17.2ZM75.95-17.1L75.95-17.1 73.95-17.1Q73.95-19.25 72.59-20.6 71.25-21.95 69.15-21.95L69.15-21.95 68-26Q70.25-26 72.07-24.85 73.9-23.7 74.92-21.68 75.95-19.65 75.95-17.1ZM59.9-8.05L64.45-8.05Q64.45-5.95 65.77-4.63 67.09-3.3 69.15-3.3L69.15-3.3 68 0.75Q65.65 0.75 63.82-0.4 62-1.55 60.95-3.55 59.9-5.55 59.9-8.05L59.9-8.05ZM73.95-8.2L75.95-8.2Q75.95-5.65 74.92-3.63 73.9-1.6 72.07-0.43 70.25 0.75 68 0.75L68 0.75 69.15-3.3Q71.25-3.3 72.59-4.65 73.95-6 73.95-8.2L73.95-8.2ZM89.54 0L84.99 0 84.99-25.25 89.54-25.25 89.54 0ZM87.24-28.6L87.24-28.6Q85.99-28.6 85.14-29.45 84.29-30.3 84.29-31.55L84.29-31.55Q84.29-32.8 85.14-33.68 85.99-34.55 87.24-34.55L87.24-34.55Q88.49-34.55 89.37-33.68 90.24-32.8 90.24-31.55L90.24-31.55Q90.24-30.3 89.37-29.45 88.49-28.6 87.24-28.6ZM113.49 0L108.74 0 99.79-13.95 104.14-15.4 113.49 0ZM112.89-25.25L99.94-9 96.44-11.35 107.39-25.25 112.89-25.25ZM100.59 0L96.04 0 96.04-36 100.59-36 100.59 0ZM134.74 0L130.19 0 130.19-17.2 134.74-17.2 134.74 0ZM124.09 0.75L124.09 0.75 124.44-3Q126.24-3 127.51-3.9 128.79-4.8 129.49-6.55 130.19-8.3 130.19-10.7L130.19-10.7 132.44-10.8Q132.44-7.4 131.34-4.8 130.24-2.2 128.36-0.73 126.49 0.75 124.09 0.75ZM124.44-3L124.09 0.75Q121.84 0.75 119.99-0.3 118.14-1.35 117.04-3.18 115.94-5 115.94-7.25L115.94-7.25 120.24-7.4Q120.24-5.5 121.51-4.25 122.79-3 124.44-3L124.44-3ZM120.24-7.4L115.94-7.25Q115.94-9.6 117.11-11.38 118.29-13.15 120.29-14.2 122.29-15.25 124.84-15.25L124.84-15.25 125.09-11.75Q122.99-11.75 121.61-10.53 120.24-9.3 120.24-7.4L120.24-7.4ZM132.54-11.75L125.09-11.75 124.84-15.25 132.54-15.25 132.54-11.75ZM132.44-10.8L130.19-10.7 130.19-17.15 132.44-17.15 132.44-10.8ZM134.74-17.1L134.74-17.1 130.19-17.1Q130.19-19.3 128.86-20.7 127.54-22.1 125.44-22.1L125.44-22.1 125.44-26Q128.14-26 130.21-24.85 132.29-23.7 133.51-21.68 134.74-19.65 134.74-17.1ZM120.74-17.7L120.74-17.7 116.54-18.55Q116.84-20.8 118.06-22.45 119.29-24.1 121.21-25.05 123.14-26 125.49-26L125.49-26 125.49-22.1Q123.64-22.1 122.31-21.03 120.99-19.95 120.74-17.7Z" opacity="1" transform="matrix(1,0,0,1,0,0)" fill="#ffffff" class="wordmark-text-0" data-fill-palette-color="primary" id="text-0"></path></svg></g></svg></g></svg></g></svg></g><g><svg viewBox="0 0 244.43135999999996 221.7188468998576" height="221.7188468998576" width="244.43135999999996"><g><svg xmlns="http://www.w3.org/2000/svg" xmlns:xlink="http://www.w3.org/1999/xlink" version="1.1" x="0" y="0" viewBox="5.001399076281178 9.179 89.99865723626408 81.636" enable-background="new 0 0 100 100" xml:space="preserve" height="221.7188468998576" width="244.43135999999996" class="icon-icon-0" data-fill-palette-color="accent" id="icon-0"><path d="M94.294 51.007C91.389 46.802 85.053 50.942 78.348 55.325 76.487 56.542 74.602 57.716 72.762 58.73A7.4 7.4 0 0 1 74.522 59.681 6.6 6.6 0 0 1 77.182 64.784C77.328 69.132 73.76 71.364 70.249 72.974 66.777 74.568 61.217 74.745 56.311 74.9 55.301 74.933 54.313 74.964 53.371 75.005 48.572 75.226 45.014 76.558 44.977 76.569A1.387 1.387 0 0 1 43.191 75.768 1.38 1.38 0 0 1 43.99 73.983C44.15 73.92 47.976 72.479 53.246 72.239 54.202 72.196 55.202 72.165 56.225 72.132 60.87 71.986 66.131 71.819 69.096 70.458 72.998 68.665 74.491 67.103 74.413 64.878 74.389 64.179 74.156 62.86 72.87 61.903 72.036 61.284 70.583 60.716 68.164 60.891 67.166 61.255 66.204 61.53 65.301 61.667 57.798 62.821 51.307 62.161 45.472 59.034 45.019 58.79 44.449 58.439 43.773 58.027 38.057 54.532 24.671 46.341 11.815 59.2H11.814L11.813 59.202 5.715 65.353C5.218 65.855 4.92 66.759 5.021 67.457L6.859 80.022 7.973 87.637C8.167 88.961 8.835 89.36 9.217 89.481 9.329 89.516 9.474 89.545 9.648 89.545 10.068 89.545 10.645 89.373 11.294 88.686 11.313 88.666 13.177 86.701 15.389 84.959 18.19 82.752 20.615 81.678 22.801 81.678 26.153 81.678 30.541 83.602 35.19 85.639 40.727 88.067 47.004 90.815 52.796 90.815 70.963 90.815 86.178 74.385 91.969 63.342 94.9 57.757 95.771 53.145 94.294 51.007" fill="#00d1cd" data-fill-palette-color="accent"></path><path d="M41.255 49.179H72.745A4.26 4.26 0 0 0 77 44.924V13.434A4.26 4.26 0 0 0 72.745 9.179H41.255A4.26 4.26 0 0 0 37 13.434V44.924A4.26 4.26 0 0 0 41.255 49.179M44.753 24.948A0.83 0.83 0 0 1 45.584 24.119H51.941V17.762C51.941 17.303 52.312 16.933 52.771 16.933H61.23C61.689 16.933 62.058 17.303 62.058 17.762V24.119H68.416A0.83 0.83 0 0 1 69.246 24.948V33.407A0.83 0.83 0 0 1 68.416 34.237H62.058V40.595A0.827 0.827 0 0 1 61.23 41.424H52.771A0.83 0.83 0 0 1 51.941 40.595V34.237H45.584A0.83 0.83 0 0 1 44.753 33.407z" fill="#00d1cd" data-fill-palette-color="accent"></path></svg></g></svg></g></svg></g><defs></defs></svg><rect width="395.52" height="131.66671324453097" fill="none" stroke="none" visibility="hidden"></rect></g></svg></g></svg>