<?xml version="1.0" encoding="UTF-8"?>
<svg version="1.1" xmlns="http://www.w3.org/2000/svg" width="555" height="500">
<path d="M0 0 C5.48419109 4.57532326 8.86463407 9.9445117 10 17 C13.38573487 55.25880408 -12.0663637 95.58978703 -34.63134766 124.25048828 C-35.94654759 125.93167321 -37.23355524 127.63039497 -38.51171875 129.33984375 C-46.70222626 140.25669054 -55.48783832 150.81588025 -65.30859375 160.30859375 C-66.98623767 161.98623767 -68.49167196 163.73239531 -70 165.5625 C-72.62965597 168.6900375 -75.50872038 171.29368692 -78.62109375 173.93359375 C-80.96543627 175.96997666 -83.22847062 178.07959841 -85.48706055 180.21020508 C-129.57469857 221.65613339 -189.97814093 252.80053766 -251.59765625 251.25 C-266.76096551 250.5596604 -281.50688648 247.35624297 -296 243 C-296.78181641 242.76861328 -297.56363281 242.53722656 -298.36914062 242.29882812 C-318.07339747 236.37309807 -336.89760603 227.88964686 -355.70703125 219.62109375 C-400.16846865 197.81646141 -400.16846865 197.81646141 -447.76953125 198.6953125 C-468.1269745 206.91706104 -484.30193939 220.91290148 -499.4375 236.5625 C-503.25946889 240.41651894 -506.59179215 242.65597031 -512.0625 243.4375 C-515.95865988 242.85722087 -517.35291057 241.93326126 -520 239 C-522.91160993 232.5123529 -523.8972363 225.53243823 -524.90112305 218.55200195 C-525.06737183 217.44176163 -525.23362061 216.3315213 -525.40490723 215.18763733 C-525.94885831 211.53903319 -526.48076623 207.88879791 -527.01171875 204.23828125 C-527.388148 201.68387153 -527.76501145 199.12952577 -528.14228821 196.57524109 C-528.93015929 191.22745755 -529.71204728 185.8788475 -530.48950195 180.52954102 C-531.38337749 174.38009872 -532.29047578 168.23271342 -533.20433968 162.08621246 C-534.08856229 156.13577514 -534.96137128 150.1837247 -535.82972145 144.23094749 C-536.19783852 141.7161298 -536.56899908 139.20175553 -536.9433651 136.68786049 C-541.89905275 103.32590852 -541.89905275 103.32590852 -538.25540161 96.94459534 C-536.11533288 94.15057569 -533.91763243 91.65749506 -531.43774414 89.16308594 C-530.0896743 87.80071808 -530.0896743 87.80071808 -528.71437073 86.41082764 C-527.73829526 85.43501387 -526.76188147 84.45953841 -525.78515625 83.484375 C-524.76804843 82.46337058 -523.75116102 81.44214655 -522.73448181 80.42071533 C-520.60364011 78.28243137 -518.46899161 76.1480369 -516.33178711 74.01611328 C-513.6273833 71.31746009 -510.93442335 68.60771079 -508.24457645 65.89455795 C-506.14515964 63.78021067 -504.03864345 61.67304243 -501.93020439 59.56769562 C-500.93656265 58.57354891 -499.94520452 57.57711311 -498.95643806 56.57811737 C-473.80775336 31.20156692 -441.50403977 14.18679566 -405.25 13.75 C-369.0158142 13.80690169 -335.67941932 29.09351022 -305.3125 47.625 C-276.08586013 65.42617839 -246.28461152 74.2153959 -211.9375 74.25 C-211.24012726 74.25100708 -210.54275452 74.25201416 -209.82424927 74.25305176 C-192.25814622 74.2360364 -175.24932465 72.72716545 -158.33984375 67.80078125 C-148.06871102 65.338112 -137.55123013 66.54275927 -128 71 C-122.21379645 74.84911953 -117.69694225 79.09910152 -116 86 C-115.00179805 94.74287225 -115.7379458 101.78949649 -121 109 C-137.21688515 127.58757387 -164.25559001 133.09677748 -187.63671875 135.0546875 C-189.11749657 135.18086205 -189.11749657 135.18086205 -190.62818909 135.30958557 C-202.90544547 136.30336165 -215.20867494 136.66320267 -227.51782227 137.02905273 C-247.41472662 137.63667613 -267.28037321 139.0345343 -286.625 144 C-287.65882813 144.2475 -288.69265625 144.495 -289.7578125 144.75 C-299.1397877 146.82486301 -299.1397877 146.82486301 -306 153 C-305.76787034 158.04001408 -305.76787034 158.04001408 -303 162 C-296.91192888 162.45960274 -291.93383744 161.39898898 -286.125 159.6875 C-279.62252651 157.87613327 -273.16260182 156.34331713 -266.5 155.25 C-265.80793457 155.13487061 -265.11586914 155.01974121 -264.40283203 154.90112305 C-255.0624719 153.4359468 -245.66744875 152.86737289 -236.2265625 152.5703125 C-234.17779382 152.4988355 -232.12904775 152.42670844 -230.08032227 152.35400391 C-229.02531525 152.31704407 -227.97030823 152.28008423 -226.8833313 152.24200439 C-164.35769775 150.78818507 -164.35769775 150.78818507 -111 121 C-108.61776566 118.16498678 -106.75640728 115.25484224 -105 112 C-104.5875 111.28714844 -104.175 110.57429688 -103.75 109.83984375 C-99.13038556 100.48833258 -99.37296514 87.74083224 -102.5625 77.9375 C-106.81866994 68.25360115 -113.27207374 62.64318181 -122 57 C-123.33783146 56.00602578 -124.6718677 55.0068974 -126 54 C-119.91511973 49.85593958 -113.71666028 45.98650499 -107.375 42.25 C-101.33571598 38.66089214 -95.37535561 35.00838222 -89.5625 31.0625 C-23.00268312 -13.91133306 -23.00268312 -13.91133306 0 0 Z " fill="#00D1CD" transform="translate(541,249)"/>
<path d="M0 0 C0.81054895 -0.00297112 1.6210979 -0.00594224 2.45620894 -0.0090034 C5.16977073 -0.01766867 7.88328828 -0.01919681 10.59686279 -0.02069092 C12.5435648 -0.02532062 14.4902659 -0.03034549 16.43696594 -0.03573608 C21.72429528 -0.04884723 27.01161192 -0.05530251 32.29895496 -0.05974674 C35.60351799 -0.06267948 38.90807757 -0.06678467 42.21263885 -0.07125092 C52.55551393 -0.08492232 62.8983811 -0.09459079 73.24126458 -0.09845281 C85.17386132 -0.10293313 97.10634348 -0.12048138 109.03890538 -0.1494534 C118.26709834 -0.17108028 127.49525909 -0.18115762 136.72347713 -0.18249393 C142.23294528 -0.18354121 147.74230569 -0.18943279 153.25174713 -0.20731354 C158.4359188 -0.2238116 163.61990191 -0.22594124 168.8040905 -0.21717453 C170.70313714 -0.2164051 172.60219398 -0.2207345 174.50121498 -0.23063278 C177.10137452 -0.2433871 179.70086967 -0.23745677 182.30102539 -0.22705078 C183.04569793 -0.23510719 183.79037047 -0.24316359 184.55760884 -0.25146413 C192.42193514 -0.17826869 199.78335754 2.107519 205.90447998 7.14044189 C212.10351485 14.08276632 214.20946788 20.20594143 214.17190552 29.54603577 C214.17643663 30.3778569 214.18096774 31.20967804 214.18563616 32.06670588 C214.19826841 34.84630566 214.19666055 37.62570921 214.19500732 40.40533447 C214.20099331 42.40144604 214.20779902 44.39755529 214.21536255 46.3936615 C214.23302267 51.81110549 214.23771794 57.22848629 214.23899412 62.64595628 C214.24041628 66.03210688 214.2446871 69.41824143 214.24998856 72.80438805 C214.26848891 84.62190139 214.27665916 96.43936963 214.27508545 108.25689697 C214.27388407 119.26548654 214.2949858 130.27388003 214.32657278 141.28241998 C214.35274053 150.73993755 214.36345253 160.19739111 214.36217463 169.6549446 C214.36166514 175.30079809 214.36734115 180.94647732 214.38853073 186.59229469 C214.40792137 191.90375206 214.40803175 197.21486908 214.39349747 202.52633858 C214.39140931 204.47215015 214.39611066 206.41798307 214.40821838 208.36375809 C214.51784329 227.20627623 214.51784329 227.20627623 209.90447998 234.14044189 C209.32697998 235.04794189 208.74947998 235.95544189 208.15447998 236.89044189 C202.18501129 242.85991059 196.44088724 245.23605777 188.06462508 245.28817159 C187.28477113 245.28798723 186.50491717 245.28780286 185.70143127 245.28761292 C184.86723543 245.2912896 184.03303959 245.29496629 183.17356509 245.29875439 C180.37398427 245.30978099 177.57444058 245.31363334 174.77484131 245.31744385 C172.76917401 245.32370926 170.76350788 245.33035613 168.75784302 245.33735657 C162.1674073 245.35838976 155.57697137 245.36875814 148.98651123 245.37872314 C146.7170428 245.38277095 144.44757449 245.38688788 142.17810631 245.39107323 C131.51593621 245.41012312 120.85377302 245.42435468 110.19158918 245.4326852 C97.88709779 245.4424578 85.58278628 245.4687789 73.27835828 245.50918609 C63.76568761 245.53935248 54.25306848 245.55415457 44.7403509 245.55746621 C39.05980396 245.55981605 33.37944923 245.56876824 27.69895363 245.59392738 C22.35306593 245.61722214 17.00749682 245.62143555 11.6615715 245.611166 C9.70285545 245.61067088 7.74412364 245.61698431 5.7854557 245.63072205 C3.10407353 245.64847183 0.42383098 245.64131986 -2.2575531 245.62818909 C-3.02625345 245.63915833 -3.7949538 245.65012758 -4.5869481 245.66142923 C-11.69307481 245.57784754 -18.81212329 243.15004164 -23.90802002 238.01544189 C-32.50137923 228.15667749 -31.66975785 216.85777921 -31.61309814 204.51324463 C-31.61852454 202.5263925 -31.62565009 200.5395444 -31.63433838 198.55270386 C-31.65251183 193.17879505 -31.64552919 187.80519478 -31.63282204 182.43128085 C-31.62266479 176.79673377 -31.63209514 171.16221235 -31.6383667 165.52766418 C-31.64563457 156.06821978 -31.63607733 146.60890049 -31.61700439 137.1494751 C-31.59523109 126.22485154 -31.60229393 115.30052656 -31.62431002 104.37591022 C-31.64248099 94.98198918 -31.6450142 85.58815784 -31.63455534 76.19422489 C-31.62833058 70.58981087 -31.62745696 64.98553705 -31.64070129 59.38113213 C-31.65228404 54.11226978 -31.64418959 48.84379127 -31.62112427 43.57497025 C-31.61585042 41.6452924 -31.61732818 39.71558206 -31.62617493 37.78591728 C-31.67310372 26.50708031 -31.3480126 18.45843087 -24.90802002 8.89044189 C-17.52492035 1.67141111 -10.06887135 -0.01157716 0 0 Z M60.90447998 51.14044189 C60.3307033 53.08186313 60.3307033 53.08186313 60.45037842 55.24468994 C60.45068054 56.06531418 60.45098267 56.88593842 60.45129395 57.73143005 C60.47193909 58.61277115 60.49258423 59.49411224 60.51385498 60.40216064 C60.52234467 61.76085014 60.52234467 61.76085014 60.53100586 63.14698792 C60.55340382 66.041176 60.60360606 68.93412779 60.65447998 71.82794189 C60.67454058 73.78951256 60.69279212 75.75110263 60.70916748 77.71270752 C60.7532798 82.52242895 60.82233057 87.3312258 60.90447998 92.14044189 C59.7137085 92.12473145 58.52293701 92.109021 57.29608154 92.09283447 C52.87557751 92.03850902 48.45510296 92.00408227 44.03436279 91.97564697 C42.12155189 91.96056632 40.20877552 91.9400988 38.29608154 91.91412354 C35.54566928 91.87770842 32.79571444 91.8607084 30.04510498 91.84747314 C29.19079895 91.83198929 28.33649292 91.81650543 27.45629883 91.80055237 C26.65577087 91.80032578 25.85524292 91.80009918 25.03045654 91.79986572 C24.32874329 91.79320389 23.62703003 91.78654205 22.90405273 91.77967834 C20.15973331 92.27480932 18.85196176 93.14891788 16.90447998 95.14044189 C16.3119082 97.63173826 16.3119082 97.63173826 16.41864014 100.48223877 C16.41248688 101.57347046 16.40633362 102.66470215 16.3999939 103.78900146 C16.41436493 104.96716431 16.42873596 106.14532715 16.44354248 107.35919189 C16.44445892 108.5686145 16.44537537 109.77803711 16.44631958 111.02410889 C16.45236567 113.58294597 16.46814156 116.14177565 16.49285889 118.70050049 C16.52933418 122.62475566 16.53387857 126.5480663 16.53338623 130.47247314 C16.54321811 132.95555425 16.55487542 135.43862894 16.56854248 137.92169189 C16.57076813 139.09985474 16.57299377 140.27801758 16.57528687 141.49188232 C16.58804657 142.58311401 16.60080627 143.6743457 16.61395264 144.79864502 C16.62157623 145.76000366 16.62919983 146.7213623 16.63705444 147.71185303 C16.74437342 150.3989363 16.74437342 150.3989363 18.90447998 153.14044189 C20.79536435 153.57626939 20.79536435 153.57626939 22.98699951 153.48101807 C23.82772003 153.48079147 24.66844055 153.48056488 25.53463745 153.48033142 C26.44301361 153.46484756 27.35138977 153.44936371 28.28729248 153.43341064 C29.21669647 153.4291658 30.14610046 153.42492096 31.10366821 153.42054749 C34.07923054 153.40372201 37.05412154 153.36606293 40.02947998 153.32794189 C42.04379313 153.31290005 44.05811688 153.29921078 46.07244873 153.28692627 C51.01671877 153.25380584 55.96048547 153.20199718 60.90447998 153.14044189 C60.89400635 154.36674316 60.88353271 155.59304443 60.8727417 156.85650635 C60.83656894 161.40188686 60.81358941 165.94725463 60.7946167 170.49273682 C60.78455291 172.46085753 60.77090064 174.42896328 60.75360107 176.39703369 C60.72936939 179.22430108 60.71800075 182.05137095 60.70916748 184.87872314 C60.69884491 185.76006424 60.68852234 186.64140533 60.67788696 187.54945374 C60.6777359 188.37007797 60.67758484 189.19070221 60.6774292 190.03619385 C60.67076736 191.11874199 60.67076736 191.11874199 60.66397095 192.22315979 C60.80063351 194.4687312 60.80063351 194.4687312 62.90447998 197.14044189 C65.39215785 197.59317937 65.39215785 197.59317937 68.33221436 197.51275635 C69.46679077 197.51898514 70.60136719 197.52521393 71.77032471 197.53163147 C73.00053345 197.52242172 74.23074219 197.51321198 75.49822998 197.50372314 C77.38463196 197.5044709 77.38463196 197.5044709 79.30914307 197.50523376 C81.97257858 197.50288941 84.63522444 197.49470783 87.29852295 197.47662354 C90.71521452 197.4539358 94.13146399 197.45339167 97.54821014 197.46014118 C100.80241685 197.46428286 104.05654477 197.45231139 107.31072998 197.44122314 C108.54093872 197.44213455 109.77114746 197.44304596 111.03863525 197.44398499 C112.17321167 197.43445297 113.30778809 197.42492096 114.47674561 197.4151001 C115.47887085 197.41049271 116.48099609 197.40588531 117.51348877 197.40113831 C120.08965618 197.37279716 120.08965618 197.37279716 121.90447998 195.14044189 C122.19551707 193.24247452 122.19551707 193.24247452 122.13153076 191.05792236 C122.1313797 190.21720184 122.13122864 189.37648132 122.131073 188.51028442 C122.12075043 187.60190826 122.11042786 186.6935321 122.09979248 185.75762939 C122.09554764 184.36352341 122.09554764 184.36352341 122.09121704 182.94125366 C122.08000067 179.9658534 122.05489358 176.99075154 122.02947998 174.01544189 C122.01945206 172.00112332 122.01032588 169.98680003 122.00213623 167.97247314 C121.98005659 163.02834733 121.94551691 158.08444525 121.90447998 153.14044189 C123.16631104 153.15091553 124.42814209 153.16138916 125.72821045 153.17218018 C130.39842912 153.20831089 135.06863537 153.23131706 139.73895264 153.25030518 C141.76241125 153.2603786 143.78585526 153.27403785 145.80926514 153.2913208 C148.71343587 153.31551037 151.61741459 153.32691138 154.52166748 153.33575439 C155.88423172 153.35123825 155.88423172 153.35123825 157.27432251 153.36703491 C158.11504303 153.36718597 158.95576355 153.36733704 159.82196045 153.36749268 C160.56364471 153.3719339 161.30532898 153.37637512 162.06948853 153.38095093 C164.15378141 153.29728514 164.15378141 153.29728514 165.90447998 151.14044189 C166.21806204 148.69499299 166.21806204 148.69499299 166.17913818 145.82037354 C166.1886702 144.70904556 166.19820221 143.59771759 166.20802307 142.45271301 C166.20711166 141.24751511 166.20620026 140.0423172 166.20526123 138.80059814 C166.21168892 136.95104774 166.21168892 136.95104774 166.21824646 135.06413269 C166.22547423 131.78219479 166.22235513 128.50043932 166.2166748 125.21850586 C166.21697945 123.20644883 166.22701446 121.19468625 166.24066162 119.18267822 C166.26509043 115.32600995 166.26931927 111.46983395 166.26776123 107.61309814 C166.28157585 105.80833763 166.28157585 105.80833763 166.29566956 103.96711731 C166.28944077 102.85263718 166.28321198 101.73815704 166.27679443 100.58990479 C166.27742386 99.60776505 166.27805328 98.62562531 166.27870178 97.61372375 C166.08743043 95.11725905 166.08743043 95.11725905 164.63772583 93.32113647 C162.51361477 91.87418282 161.35674932 91.7762671 158.80023193 91.79986572 C157.9796077 91.80009232 157.15898346 91.80031891 156.31349182 91.80055237 C154.99148018 91.82377815 154.99148018 91.82377815 153.64276123 91.84747314 C152.73696823 91.85171799 151.83117523 91.85596283 150.89793396 91.8603363 C148.00398065 91.87713341 145.11072292 91.91478739 142.21697998 91.95294189 C140.25540149 91.9679874 138.2938121 91.98167604 136.33221436 91.99395752 C131.52270142 92.02704032 126.71370865 92.07882968 121.90447998 92.14044189 C121.92542725 90.91414063 121.94637451 89.68783936 121.96795654 88.42437744 C122.04030064 83.87908585 122.08625932 79.33384523 122.12420654 74.78814697 C122.1443348 72.81996099 122.17164017 70.8518349 122.20623779 68.8838501 C122.25470309 66.05647009 122.27743616 63.22987989 122.29510498 60.40216064 C122.32607269 59.080149 122.32607269 59.080149 122.35766602 57.73143005 C122.35796814 56.91080582 122.35827026 56.09018158 122.35858154 55.24468994 C122.37190521 54.1621418 122.37190521 54.1621418 122.38549805 53.057724 C122.03679696 50.98324383 122.03679696 50.98324383 120.20458984 49.40818787 C117.46875252 47.90028305 115.76199924 47.76033022 112.64862061 47.7522583 C111.60073364 47.74280182 110.55284668 47.73334534 109.47320557 47.72360229 C108.34708862 47.72967499 107.22097168 47.73574768 106.06072998 47.74200439 C104.89948608 47.73913422 103.73824219 47.73626404 102.54180908 47.73330688 C100.08733635 47.73126596 97.63284736 47.73679776 95.17840576 47.74932861 C91.41875889 47.76538093 87.66018712 47.7494799 83.90057373 47.73028564 C81.51645677 47.73226807 79.13234048 47.73611173 76.74822998 47.74200439 C75.05905457 47.73289536 75.05905457 47.73289536 73.33575439 47.72360229 C72.28786743 47.73305878 71.23998047 47.74251526 70.16033936 47.7522583 C69.23974731 47.75464508 68.31915527 47.75703186 67.3706665 47.75949097 C64.38386579 48.22086098 63.01623951 48.98847697 60.90447998 51.14044189 Z " fill="#00D1CD" transform="translate(227.09552001953125,-0.14044189453125)"/>
</svg>
